User Type,Username,Date,Text
,vivatpb5776,2011-05-06T22:07Z,"I know there is no reference as to the source of this .torrent but this appears to be a CAM release. Also, there is a thick black border along each side of the video. I am sure there are better versions available. For those that care, here are the specs:
General
Complete name                    : Hitch.2005.English.avi
Format                           : AVI
Format/Info                      : Audio Video Interleave
Format profile                   : OpenDML
File size                        : 1.11 GiB
Duration                         : 1h 58mn
Overall bit rate                 : 1 344 Kbps
Writing application              : Lavf51.12.1

Video
ID                               : 0
Format                           : xvid
Codec ID                         : xvid
Duration                         : 1h 58mn
Bit rate                         : 156 Kbps
Width                            : 640 pixels
Height                           : 480 pixels
Display aspect ratio             : 4:3
Frame rate                       : 29.970 fps
Bits/(Pixel*Frame)               : 0.017
Stream size                      : 132 MiB (12%)

Audio
ID                               : 1
Format                           : MPEG Audio
Format version                   : Version 1
Format profile                   : Layer 3
Mode                             : Joint stereo
Mode extension                   : MS Stereo
Codec ID                         : 55
Codec ID/Hint                    : MP3
Duration                         : 1h 58mn
Bit rate mode                    : Constant
Bit rate                         : 128 Kbps
Channel(s)                       : 2 channels
Sampling rate                    : 44.1 KHz
Compression mode                 : Lossy
Stream size                      : 9.92 MiB (1%)
Alignment                        : Aligned on interleaves
Interleave, duration             : 37 ms (1.11 video frame)"
